<svg width="36" height="36" viewBox="0 0 36 36" fill="none" xmlns="http://www.w3.org/2000/svg">
<path d="M28.3335 28C29.306 28 30.2386 28.3863 30.9262 29.0739C31.6139 29.7616 32.0002 30.6942 32.0002 31.6667C32.0002 32.6391 31.6139 33.5718 30.9262 34.2594C30.2386 34.947 29.306 35.3333 28.3335 35.3333C27.361 35.3333 26.4284 34.947 25.7408 34.2594C25.0531 33.5718 24.6668 32.6391 24.6668 31.6667C24.6668 30.6942 25.0531 29.7616 25.7408 29.0739C26.4284 28.3863 27.361 28 28.3335 28ZM28.3335 29.8333C27.8473 29.8333 27.381 30.0265 27.0371 30.3703C26.6933 30.7141 26.5002 31.1804 26.5002 31.6667C26.5002 32.1529 26.6933 32.6192 27.0371 32.963C27.381 33.3069 27.8473 33.5 28.3335 33.5C28.8197 33.5 29.286 33.3069 29.6299 32.963C29.9737 32.6192 30.1668 32.1529 30.1668 31.6667C30.1668 31.1804 29.9737 30.7141 29.6299 30.3703C29.286 30.0265 28.8197 29.8333 28.3335 29.8333ZM11.8335 28C12.806 28 13.7386 28.3863 14.4262 29.0739C15.1139 29.7616 15.5002 30.6942 15.5002 31.6667C15.5002 32.6391 15.1139 33.5718 14.4262 34.2594C13.7386 34.947 12.806 35.3333 11.8335 35.3333C10.861 35.3333 9.92841 34.947 9.24077 34.2594C8.55314 33.5718 8.16683 32.6391 8.16683 31.6667C8.16683 30.6942 8.55314 29.7616 9.24077 29.0739C9.92841 28.3863 10.861 28 11.8335 28ZM11.8335 29.8333C11.3473 29.8333 10.881 30.0265 10.5371 30.3703C10.1933 30.7141 10.0002 31.1804 10.0002 31.6667C10.0002 32.1529 10.1933 32.6192 10.5371 32.963C10.881 33.3069 11.3473 33.5 11.8335 33.5C12.3197 33.5 12.786 33.3069 13.1299 32.963C13.4737 32.6192 13.6668 32.1529 13.6668 31.6667C13.6668 31.1804 13.4737 30.7141 13.1299 30.3703C12.786 30.0265 12.3197 29.8333 11.8335 29.8333ZM32.0002 6H6.8285L11.5035 17H26.5002C27.1052 17 27.6368 16.7067 27.9668 16.2667L33.4668 8.93333C33.7052 8.62167 33.8335 8.23667 33.8335 7.83333C33.8335 7.3471 33.6403 6.88079 33.2965 6.53697C32.9527 6.19316 32.4864 6 32.0002 6ZM26.5002 18.8333H11.5952L10.1835 21.6933L10.0002 22.5C10.0002 22.9862 10.1933 23.4525 10.5371 23.7964C10.881 24.1402 11.3473 24.3333 11.8335 24.3333H32.0002V26.1667H11.8335C10.861 26.1667 9.92841 25.7804 9.24077 25.0927C8.55314 24.4051 8.16683 23.4725 8.16683 22.5C8.16628 21.8779 8.32401 21.266 8.62516 20.7217L9.94516 18.0267L3.29016 2.33333H0.833496V0.5H4.50016L6.0585 4.16667H32.0002C32.9726 4.16667 33.9053 4.55298 34.5929 5.24061C35.2805 5.92824 35.6668 6.86087 35.6668 7.83333C35.6668 8.75 35.3552 9.52 34.8418 10.1433L29.5068 17.275C28.8468 18.21 27.7468 18.8333 26.5002 18.8333Z" fill="white"/>
</svg>
